<svg viewBox="0 0 252 252" xmlns="http://www.w3.org/2000/svg"><path d="m57.2 163.4a36.9 36.9 0 0 0 -7.6.8v.2c0 .3.3.6.8.9a16 16 0 0 0 1.9 1.1l2.6.9 2.8.9 2.4.5 1.4.3h2.1a11.1 11.1 0 0 0 2.5-.5 9 9 0 0 0 2.3-.8 4.7 4.7 0 0 0 1.7-1.4 27.7 27.7 0 0 0 -6.3-2.2 29.6 29.6 0 0 0 -6.6-.7z"/><path d="m125 0a125 125 0 1 0 125 125 125 125 0 0 0 -125-125zm81.5 69v.3a8.8 8.8 0 0 1 -.1 1.4l-.3 2-.3 2.1c-.2.6-.2 1.1-.3 1.3l-.9 1.8-.6 1.9-.6 2a10.7 10.7 0 0 1 -.7 1.9c-.5 1.1-1.1 2.1-1.6 3a21.1 21.1 0 0 0 -1.6 3l-19.6 27.3-.3.5-.2.3-.3.3a1.1 1.1 0 0 0 -.4.5l-1.7 2.2-2 2.8-2.1 3.2-2 3.2a23.8 23.8 0 0 0 -1.3 2.9 6 6 0 0 0 -.6 2.3c0 .3-.2.5-.2.7s.2.4.2.7a.5.5 0 0 0 -.2.4c0 .2.1.4.2.4v10a4.4 4.4 0 0 1 -.2 1c-.2.3-.2.7-.4 1.1s-.5.8-.6 1.2-.4.8-.4 1.1v1.6a.8.8 0 0 1 0 .5c-.2.2-.2.5-.4.7l-.7.8a1.1 1.1 0 0 1 -.5.4v.4c0 .1.6.2.7.4s.9.4.9.5v2.7a19.7 19.7 0 0 1 -.6 3.5c-.2 1.2-.6 2.3-.8 3.4l-.6 3.5a19.8 19.8 0 0 0 -.3 3.5c0 2 0 4.1.2 6.1a59.7 59.7 0 0 0 1.1 6.1 30.1 30.1 0 0 0 2.1 5.7 23.9 23.9 0 0 0 3.4 5.1l-1.3.8-1.6.7-1.7.4a3.6 3.6 0 0 1 -1.4.1h-.5l-1-.2-1.2-.3-.9-.2-.8-.2-.7-.2-.6-.5a.9.9 0 0 1 -.3-.7c.1-1.3.1-2.6.1-4l-.3-4.2c-.2-1.4-.3-2.8-.5-4.2s-.4-2.7-.5-4-.1-.3-.2-.6a1.6 1.6 0 0 0 -.3-.6c.1-1.1.1-2.3.2-3.6s-.1-2.6-.2-4a26.3 26.3 0 0 0 -.6-3.9 10.8 10.8 0 0 0 -1.3-3.3 2.8 2.8 0 0 0 -1.5 1.7 26.8 26.8 0 0 0 -.7 2.7c-.3 1-.2 1.9-.5 2.9s-.9 1.7-.9 2.3v7.4c0 2.8-.2 5.5-.1 8.1a73.6 73.6 0 0 0 .6 8.1c0 .1.1.2.4.3l.8.6.8.7a.9.9 0 0 1 .3.6c0 .3-.3.5-.8.8l-1.8.9-2 .8-1.3.4h-.1l-4.7-2.6a.3.3 0 0 1 -.2-.4v-.6a29.9 29.9 0 0 1 0-3 26.2 26.2 0 0 0 .1-2.9 23.4 23.4 0 0 0 -.3-3.8l-.6-3.6-.6-3.7c-.1-1.2-.2-2.5-.2-3.8s0-2.3.1-3.3l.3-2.8.6-2.7c.2-1 .4-2 .6-3.2s0-.4 0-.7a2 2 0 0 1 -.1-.7 5.8 5.8 0 0 0 -1.9.3l-1.8.5a13.9 13.9 0 0 0 -1.9.6l-1.9.5-1.3.2h-2l-1.1-.2h-6.9a44.3 44.3 0 0 0 -5.2-.2h-2.4a3.5 3.5 0 0 0 -2.3.9v5.1c0 1.7-.1 3.3-.2 5s-.2 3.3-.2 5-.2 3.4-.2 5.1v5c0 .6.7 1.1 1.1 1.7l1.4 1.6 1.2 1.8a3.4 3.4 0 0 1 .5 1.7v.4a9 9 0 0 1 -4 .4c.1.5 0 .7-.2.8h-2.7l-2.2-.2a5.1 5.1 0 0 1 -1.8-.9 2.2 2.2 0 0 1 -.8-1.8c0-.4.1-.8.1-1.3a5.6 5.6 0 0 1 .4-1.2l.3-1.3a6.6 6.6 0 0 0 .1-1.4 23.4 23.4 0 0 0 -.3-3.8c-.1-1.2-.4-2.4-.6-3.5s-.6-2.6-.8-3.8a17.1 17.1 0 0 1 -.7-3.9h-.5c-.2 0-.3.8-.5.9a2.5 2.5 0 0 1 -.4.7l-.3.5-1.5 2.3a16.4 16.4 0 0 0 -1.4 2.2 12.8 12.8 0 0 0 -1.1 2.4 7.5 7.5 0 0 0 -.4 2.6 4.1 4.1 0 0 0 .3 1.6 10.7 10.7 0 0 0 .7 1.5l.7 1.2.4.5a1 1 0 0 1 -.4.7l-1 .5-1.3.3h-2.6l-1.7-.2a1.5 1.5 0 0 1 -1-.4 1.1 1.1 0 0 1 -.7-.8 9.1 9.1 0 0 1 -.6-1.6 9.8 9.8 0 0 0 -.5-1.6 4.1 4.1 0 0 1 -.3-1.6 3 3 0 0 1 .5-1.5 8.9 8.9 0 0 1 .9-1.6l1-1.5a7 7 0 0 0 .8-1.4c.9-1.9 1.7-3.9 2.4-5.8s1.6-3.9 2.5-5.8a3 3 0 0 1 .4-.8 45708956252720.5 45708956252720.5 0 0 0 1-1.4 2.4 2.4 0 0 0 .2-.8c0-.4-.2-.6-.4-.6h-1.2l-8.9 2.4a2.7 2.7 0 0 1 -1.3.5l-1.7.4a3.4 3.4 0 0 0 -1.5.6 1 1 0 0 0 -.7 1 2.4 2.4 0 0 0 .2.9l.7.6.8.6a1.3 1.3 0 0 1 .7.6l-.4.4-1.2-.8-1.4-.9-1.5-.4-1.5-.2a16.4 16.4 0 0 0 -3.7.5l-3.9 1.1c-1.3.5-2.7.8-4 1.2a20.1 20.1 0 0 1 -4.2.5l-3.4-.4-4.8-1.1-5.3-1.8a27.8 27.8 0 0 1 -4.9-2.2 18.5 18.5 0 0 1 -3.7-2.6 4.3 4.3 0 0 1 -.3-6.1 7.7 7.7 0 0 1 2.7-1.7 13.6 13.6 0 0 1 3.5-.1 31.1 31.1 0 0 1 3.3.3h3.9a2.2 2.2 0 0 1 1.2-.2h2.3l2.5.3 2 .3 1.9.5 1.7.9 1.8.7a6.9 6.9 0 0 0 2 .3 8.7 8.7 0 0 0 3.9-1 45 45 0 0 0 4.1-2.5c1.3-1 2.6-2 3.8-3.1l3.2-2.7 1.8-1.2a11.8 11.8 0 0 0 1.9-1.1 17.7 17.7 0 0 0 1.7-1.2 7.9 7.9 0 0 0 1.4-1.7 39.1 39.1 0 0 0 2.6-4.4 39.9 39.9 0 0 1 2.7-4.4 5.3 5.3 0 0 1 1.3-1.3l1.5-.9 1.6-.9 1.6-.9 3.5-2.6c1.2-.9 2.3-1.9 3.4-2.9l3.3-2.9 3.4-2.8a20 20 0 0 1 3.7-2.2l3.9-1.8 2.4-1.3 2.5-1.3 2.5-1.1a11.1 11.1 0 0 1 2.6-.7l22-3.2a12.1 12.1 0 0 0 3.5-1.2 20.2 20.2 0 0 0 3.3-2.1l3.1-2.8 2.9-3.2 2.6-3.2 2.3-2.8 7.6-8.8.3-.3.5-.5c.2-.2.4-.3.5-.5l.3-.3 2-3.2h.3l.3-.3.4-.2.2-.2.4-.4.4-.4a12.5 12.5 0 0 0 1.2-1.7l1.4-1.9 1.2-1.9a18.1 18.1 0 0 0 1-1.7 16.7 16.7 0 0 0 .8-2 17.2 17.2 0 0 0 .7-2.1 18 18 0 0 1 .8-2.1c.2-.8 1-1.5 1-2.2v-6a4.8 4.8 0 0 0 -1.1-3 13 13 0 0 0 -5.9-4.4 10.3 10.3 0 0 0 -3.2-.7 26.9 26.9 0 0 0 -5.7.7 11.5 11.5 0 0 0 -5 2.6 6.2 6.2 0 0 0 -1.4 1.4l-1.6 1.8c-.6.7-1.2 1.3-1.7 2a10.7 10.7 0 0 1 -1.9 1.8l-1.7 1.3a4.1 4.1 0 0 1 -1.8.5 1.6 1.6 0 0 1 -1.1-.5 1.4 1.4 0 0 1 -.5-1.1v-.4a1.3 1.3 0 0 1 .1-.5c0-.2.1-.5.1-.7s.1-.5.2-.8v-.4a4.4 4.4 0 0 0 -.2-1.7l-.6-1.3-.6-1.2a5 5 0 0 1 -.2-1.2c.4 0 .7-.1.8-.3s.3-.4.5-.6a2.5 2.5 0 0 1 .4-.7 1 1 0 0 1 .8-.6c0-.1.2-.1.5-.1h2.3a1.2 1.2 0 0 0 .9-.3 2.3 2.3 0 0 1 .7-.7h.4l.2.3c.1.2.1.4.2.4s.1-.3.4-.3l.6-.4 1.1-.6 1.3-.8 1.3-.8 1.1-.6.6-.4 2-1.3 1.8-.6 1.9-.2h6.3l1.5.6 1.5.3 1.5.3 1.5.5a15.1 15.1 0 0 1 4.5 2.9 15.8 15.8 0 0 1 3.1 4.2 14.3 14.3 0 0 1 1.7 4.9 19.8 19.8 0 0 1 .5 5.4z"/></svg>