<svg viewBox="0 0 252 252" xmlns="http://www.w3.org/2000/svg"><path d="m129.5 147.8c-.3 0-.4.1-.4.5h-.1a.5.5 0 0 0 -.5.5c0 .4.2.6.5.6s.4-.2.4-.6h.1c.3 0 .5-.1.5-.5s-.2-.5-.5-.5z"/><path d="m130.9 147a1.8 1.8 0 0 0 -.9.8h.3a2.1 2.1 0 0 0 1.1-.4 2.2 2.2 0 0 0 .9-.7h-.3a2.3 2.3 0 0 0 -1.1.3z"/><path d="m133.9 144.4c-.3 0-.4.2-.4.6h-.1a.5.5 0 0 0 -.5.5h-.1c-.3 0-.5.2-.5.6s.2.6.5.6.5-.2.5-.6h.1c.3 0 .4-.2.4-.6h.1c.3 0 .5-.1.5-.5s-.2-.6-.5-.6z"/><path d="m156.7 138.6a8.7 8.7 0 0 1 -1.2 1.4 1.4 1.4 0 0 0 .8 1 2 2 0 0 0 1.1.2 2.3 2.3 0 0 0 1.4-.4l1-1.2a10.9 10.9 0 0 0 .8-1.5c.2-.5.3-1.1.5-1.1h-3.4c-.2 0-.5 1-1 1.6z"/><path d="m125 0a125 125 0 1 0 125 125 125 125 0 0 0 -125-125zm93.7 74.2a5.7 5.7 0 0 1 -1.5.3h-3.6l-5.2 1.2a16.5 16.5 0 0 0 -3.5 1.6 10.3 10.3 0 0 0 -2.5 2.1 15.8 15.8 0 0 0 -1.7 2.9c-.5 1.1-1 2.4-1.5 3.8l-1.6 5-1.2 3.4-1.2 3.1c-.5 1-.9 2.1-1.5 3.1a33.7 33.7 0 0 1 -1.7 3.2 39.4 39.4 0 0 1 -2.6 4l-2.9 3.6-3.1 3.5c-1 1.2-2 2.4-3 3.8a9.4 9.4 0 0 0 -1.4 2.6l-.9 2.5a9.8 9.8 0 0 1 -1.3 2.2 6.6 6.6 0 0 1 -2.5 1.5 4 4 0 0 1 -1.3.6l-2 .7-2 .6-1.3.3a2.8 2.8 0 0 1 .1 2c-.2.4-.4.8-.8.9l-1.2.6a1.8 1.8 0 0 0 -.9 1l-2.2 6.6a3.1 3.1 0 0 1 -1 1.5 5.8 5.8 0 0 1 -1.8.8 12.3 12.3 0 0 1 -2 .2 10.3 10.3 0 0 1 -1.8-.1h-1.9c-.3-.1-.4-.3-.4-.8s0-.3.1-.4a.2.2 0 0 1 .2-.2l.2-.3c.1-.1.1-.2.1-.4v-.2a26 26 0 0 0 -3.4 1.6l-3.3 2.1-3.3 2.1a25.9 25.9 0 0 1 -3.3 1.9l-.8.5-1.2.5a7.3 7.3 0 0 0 -.9.8 1.4 1.4 0 0 0 -.5 1c0 .1.1.2.1.4v.2l1.8 1.6 1.9 1.7a15.6 15.6 0 0 0 2 1.6 13.2 13.2 0 0 0 2 1.2l1.8.7 1.9.5 1.9.6a8.3 8.3 0 0 1 1.6.9 5.7 5.7 0 0 1 1.3 1.4l1.1 1.5a13.4 13.4 0 0 1 1.1 1.4 6.4 6.4 0 0 0 1.5 1.3l1.6.6 2.1.6a4.8 4.8 0 0 1 1.7 1 1.9 1.9 0 0 1 .8 1.7v.5l-5.5 1.1-1.1.4-1.2.2h-.5l-1.1-.6-1.7-1-1.7-1c-.5-.4-.9-.6-1-.8s-.1 0-.2-.2l-.3-.5-.4-.5c-.1-.2-.2-.3-.2-.4l-2.2-4.5-1.2-.4-1.7-.7-2.1-1-2.1-.9-1.8-.8-1.1-.6a12.8 12.8 0 0 1 -2.7-1.6 13.3 13.3 0 0 1 -2.6-2.1 10 10 0 0 1 -2-2.6 8.7 8.7 0 0 1 -1-3.1l-.6.2-.6.4-.8.6-1.7 1.2-2.1 1.4-2.1 1.3-1.7 1-.9.6-5.9 3.4a33.1 33.1 0 0 0 -4.5 3.4 17 17 0 0 0 -3.5 4.4c-.9 1.6-.7 3.8-2.4 6.5v1.5a8.8 8.8 0 0 0 1.2 4.4 6.5 6.5 0 0 0 2.1 2.5 7.7 7.7 0 0 0 2.5 1.4l2.6 1a5.6 5.6 0 0 1 1.9.9 5.3 5.3 0 0 1 .8 2h-13.2l-.2-.4c-.1-.2-.2-.1-.3-.2h-.5l-.6-.3a3.4 3.4 0 0 1 -1.3-1.6 6.5 6.5 0 0 1 -.4-2.1 9 9 0 0 1 .2-2.3c0-.7.2-1.4.2-2v-1.4a8.2 8.2 0 0 1 .3-1.8c.2-.8.3-1.6.6-2.6s.4-2 .7-3.1.6-2.1.8-3.1.5-1.9.7-2.6l.4-1.8.6-2 1-1.8a14.1 14.1 0 0 0 4.4-2.5 24.8 24.8 0 0 0 3.2-3.3l2.9-3.3a12.7 12.7 0 0 1 3.4-3.1l1.4-.7 2-.8 2.3-.9a10.3 10.3 0 0 0 2.1-1.1l1.6-1.3a3.1 3.1 0 0 0 .6-1.6c0-.4-.1-.8-.1-1.3a1.4 1.4 0 0 0 -.6-1.1l-.7-.3-1.2-.5-1.2-.6-.7-.3a9.4 9.4 0 0 1 -2-1.2l-2.6-1.9-2.5-1.5a3.4 3.4 0 0 0 -1.7-.6h-7.8c-5.9 0-11.7-.1-17.4.1s-11.5.2-17.4.2q-6.4 0-12.6-.3a99 99 0 0 1 -12.2-1.4 70.1 70.1 0 0 1 -11.8-2.9 63.9 63.9 0 0 1 -11.6-4.9l-1.4-.7-1.6-1a4.9 4.9 0 0 1 -1.2-1.3 2.4 2.4 0 0 1 -.6-1.5 5.9 5.9 0 0 1 2.1.4 11.7 11.7 0 0 1 2.4.9l2.1.9 1.5.6 4.6 1.7 5 1.4 5 1 4.8.3h26.1l2.5-.3 3.3-.6 3.6-.6a18.6 18.6 0 0 0 3.4-.6l2.6-.5 6.8-1.3 7.2-1.6c2.4-.6 4.8-1.3 7.1-2.1a38.5 38.5 0 0 0 6.5-2.8l3.8-1.7 3.7-1.6 3.9-1.3a25.9 25.9 0 0 1 4.2-.9h2.7l1.8-.2h1l1.8-.4 3.3-.7 4-.9 4-.9c1.2-.2 2.3-.9 3.3-1.1s1.5-.7 1.8-.7h6.5c2.6 0 5.2.5 7.8.7s5.1.5 7.7.5a9.4 9.4 0 0 0 4.9-1.2 20.5 20.5 0 0 0 4.5-3.4 37.5 37.5 0 0 0 3.8-4.9c1.2-1.9 2.2-3.7 3.2-5.6a52.5 52.5 0 0 0 2.5-5.5l1.8-4.7c.4-1.2.7-2.3 1.1-3.4s.6-2.2.9-3.1l1.2-2.6a8.1 8.1 0 0 1 1.8-1.9 6.8 6.8 0 0 1 2.6-2 12 12 0 0 1 3.7-.8h3c.8 1.6 1.7.9 2.9 1.3a36.8 36.8 0 0 1 3.5 1.5 17 17 0 0 1 3 1.8 2.9 2.9 0 0 1 1.2 2.1 2.6 2.6 0 0 1 -.4 1.4 2.7 2.7 0 0 1 -1.2.9z"/></svg>