<svg viewBox="0 0 252 252" xmlns="http://www.w3.org/2000/svg"><path d="m125 0a125 125 0 1 0 125 125 125 125 0 0 0 -125-125zm108.1 114.1h-7.2c-3 0-6-.1-9-.4l-9-1-8.9-.9a90.8 90.8 0 0 0 -9.1-.5 146.2 146.2 0 0 0 -16 1 81.2 81.2 0 0 0 -15.5 3.6l-30 10.9a2.4 2.4 0 0 0 -1.2 1.5 21.3 21.3 0 0 0 -.8 2.7c-.3 1-.4 1.9-.6 2.8a7 7 0 0 1 -.6 1.9 2.4 2.4 0 0 0 1.3 1.3l2.4 1.2 2.8 1.1a15.1 15.1 0 0 1 2.8 1.5 7 7 0 0 1 2 1.8 3.5 3.5 0 0 1 .8 2.4 1.3 1.3 0 0 1 -.5 1.2l-1.1.9-1.6.7-1.6.8a4 4 0 0 0 -1.2 1 2.5 2.5 0 0 0 -.5 1.5 3.9 3.9 0 0 0 .8 2.5 5.8 5.8 0 0 0 1.9 1.5 17.1 17.1 0 0 0 2.3 1.3 8.7 8.7 0 0 1 2.1 1.7 13.2 13.2 0 0 1 2 3.4 26 26 0 0 1 1.3 3.6 25.3 25.3 0 0 1 .7 3.8c.2 1.3.1 2.6.3 3.9l1.3 1.3v7h.8l1 .2 1 .2.5.3a3.2 3.2 0 0 1 .1.8 3.4 3.4 0 0 1 -.1.9l-.3 1.3a3.1 3.1 0 0 1 -.7.9.8.8 0 0 1 -.8.3h-5.1c-.2 0-.5-.5-1-.8l-1.5-.9-1.5-.7c-.5-.4-.9-.9-1.1-.9h-6.1a5 5 0 0 1 .6-2.9 4.9 4.9 0 0 1 1.7-1.5 6.8 6.8 0 0 1 2-.7l2.1-.3a3.4 3.4 0 0 0 1.6-.6 1.4 1.4 0 0 0 .7-1.3v-.4a.4.4 0 0 1 -.1-.3l-.8-1.7c-.4-.8-.8-1.6-1.3-2.4a15.8 15.8 0 0 0 -1.5-2.4 7.1 7.1 0 0 0 -1.5-1.8l-1.3-.8-1.8-.9-1.7-1c-.5-.4-.9-.7-1-1.1s-.6-1.8-.9-2.9a29.9 29.9 0 0 0 -1-3.2 9.2 9.2 0 0 0 -1.7-2.5 3.9 3.9 0 0 0 -2.9-1 23.2 23.2 0 0 0 -5.9.7 31.1 31.1 0 0 0 -5.6 2.2 28.5 28.5 0 0 0 -4.9 3.4 27.4 27.4 0 0 0 -3.9 4.5c-.1.2-.2.2-.4.2h-.1c-.1 0-.1-.1-.1-.2s-.2-.1-.2-.3-.1-.4-.2-.6a1.4 1.4 0 0 0 -.2-.6c0-.2 0-.3-.1-.3h-.3a1.4 1.4 0 0 0 -1 .5l-.9 1.1-.8 1.3a2.9 2.9 0 0 1 -.8 1 5.2 5.2 0 0 1 -.7-1.6v-1.6a13.6 13.6 0 0 1 .3-2.9l.9-2.7a15.2 15.2 0 0 0 .9-2.5 15.9 15.9 0 0 0 .4-2.8h-4.8c0-1.6.2-1.7.7-2.3a3.9 3.9 0 0 1 1.6-1.5 5.2 5.2 0 0 1 2-.9l2.1-.3a15.1 15.1 0 0 1 3 .2l2.9.4 2.8.5 2.9.2h2.3a2.5 2.5 0 0 0 -1.7-1.3l-2.5-.5-2.6-.2c-.9 0-1.6.2-2.2-.2l-3.8-2.4h-.3a16.3 16.3 0 0 0 -3.1-.1 10.8 10.8 0 0 1 -3.1.2 7.3 7.3 0 0 1 -3-.7l-2.6-1.3-2.5-1.4a6.3 6.3 0 0 0 -2.9-.6v6l1.6-.2 1-.3.8-.5c.4-.2.4-.4.9-.6l.6-.2v2.7l2-.6c0 .1.2.2.2.5s.1.3.1.5a5.5 5.5 0 0 1 -1.3 3.8 17.8 17.8 0 0 1 -3.2 2.8 18.8 18.8 0 0 0 -4.5-1.2l-4.7-.7v-7.6l-1.7.5-2 1a8.6 8.6 0 0 0 -1.9 1.1c-.5.5-.9.8-.9 1.2v6.8a9.3 9.3 0 0 0 2.9-.3l1.8-.6 1.2-.6 1.2-.2h.4l.2.7c.2.4.3.8.5 1.3s.3.8.4 1.2a8.4 8.4 0 0 1 .2 1 7.2 7.2 0 0 1 -.4 1.9 9.9 9.9 0 0 1 -1.1 1.7 5 5 0 0 1 -1.5 1.4 4.1 4.1 0 0 1 -1.8.5h-1l-3-.5-3.6-.7a12.5 12.5 0 0 1 -3.1-1.2 2.5 2.5 0 0 1 -1.5-2.1v-11.6l.9-.8a20.2 20.2 0 0 0 1.9-1.6l2.3-2.1a27.3 27.3 0 0 0 2.3-2.5 20.3 20.3 0 0 0 1.8-2.6 5 5 0 0 0 .7-2.5 4.1 4.1 0 0 0 -1.1-2.8 15.5 15.5 0 0 0 -2.8-2l-3.2-1.4-2.5-.8-1.3-9a16.8 16.8 0 0 0 -.6-2.7 14.8 14.8 0 0 0 -1-2.7 9.1 9.1 0 0 0 -1.8-2.1 4.5 4.5 0 0 0 -2.6-.8 12.8 12.8 0 0 0 -3.6.4 17.5 17.5 0 0 0 -3.1 1.5l-1.6 1-2.5 1.5-3 1.7-2.9 1.7-2.5 1.7c-.7.4-1.3 1.1-1.6 1.1h-1l-1.7-.3a13.8 13.8 0 0 1 -2-.3 4.7 4.7 0 0 1 -1.4-.8c-.4-.3-.3-.8-.3-1.3v-1.9c0-.6-.2-.9 0-.9h1.6c0-.1-.1-.2 0-.4s.1-.5.1-.8a2.9 2.9 0 0 0 .2-.9.4.4 0 0 0 0-.5l-.8-.8-.8-.5-.7-.6a2.1 2.1 0 0 1 -.3-1.2 5 5 0 0 1 .2-1.2 4.1 4.1 0 0 1 .7-1.1c.3-.4.3-.7.6-.9l.8-.3v.7a4.7 4.7 0 0 0 .6 1.5c.1.5.6.7 1.2.7a1.2 1.2 0 0 0 1-.5 5.2 5.2 0 0 0 1-1.1 7.6 7.6 0 0 0 .6-1.6c.1-.4.2.3.2-1.3h-12c-.2 0-.5-.3-.8-.5l-1-.7a3.6 3.6 0 0 1 -.9-.8 1.3 1.3 0 0 1 -.4-1 4.5 4.5 0 0 1 1-3.1 8.1 8.1 0 0 1 2.6-1.8l3.1-1a13.6 13.6 0 0 0 2.8-.8l2.2-.9 3.3-1.5 3.3-1.6a8.8 8.8 0 0 1 2.1-1h13.4a7.9 7.9 0 0 1 3.8.9 12.6 12.6 0 0 1 3.1 2.5 28.5 28.5 0 0 1 2.5 3.3l2.2 3.2a14.2 14.2 0 0 0 2.3 2.5 3.3 3.3 0 0 0 2.4 1 .8.8 0 0 0 .8-.4.9.9 0 0 1 .8-.4 2.8 2.8 0 0 1 1.5.4l1.5.7 1.5.6a2.8 2.8 0 0 0 1.5.4l4.1-.2 4-.5 4-.5 4.1-.2a55.8 55.8 0 0 1 7.2.4 39.8 39.8 0 0 1 7.1 1.6c1.6.5 3.2 1.2 4.9 1.9l5 2.1a45.6 45.6 0 0 0 5.2 1.8 23.3 23.3 0 0 0 5.3.7h2.6l12.6-2.6c4.2-.9 8.4-1.6 12.6-2.3s8.5-1.1 12.7-1.5 8.6-.5 12.9-.5h8.7a32.1 32.1 0 0 1 5 .9l35.8 7.1h11.5c-.8 0-1.8 1-3.1 1.3a17.5 17.5 0 0 1 -4 .2z"/></svg>